<?xml version="1.0" encoding="UTF-8" standalone="no"?>
<svg width="155px" height="46px" viewBox="0 0 155 46" version="1.1" xmlns="http://www.w3.org/2000/svg" xmlns:xlink="http://www.w3.org/1999/xlink">
    <!-- Generator: Sketch 3.6.1 (26313) - http://www.bohemiancoding.com/sketch -->
    <title>Logo</title>
    <desc>Created with Sketch.</desc>
    <defs></defs>
    <g id="1.-HEADER" stroke="none" stroke-width="1" fill="none" fill-rule="evenodd">
        <g id="DESKTOP---970-px" transform="translate(-176.000000, -31.000000)" fill="#FFFFFF">
            <g id="HEADER" transform="translate(171.000000, 24.000000)">
                <g id="Logo-/-Search-/-Links-/-Cart">
                    <g id="Logo" transform="translate(0.000000, 7.000000)">
                        <path d="M132.622274,11.3977454 C132.422703,9.0931908 130.451651,7.20008125 127.329407,7.47206647 C124.358189,7.73018275 123.351859,9.21030625 123.065987,11.2474986 L121.094935,26.5857696 L120.992453,26.5950155 L116.762166,13.5489712 C115.489227,9.58322648 114.678615,8.57079427 110.633259,8.92137011 C106.589444,9.27348695 105.859739,10.3683623 105.395101,14.5367475 L103.785434,28.0890079 L103.683723,28.0974834 L98.7923092,13.3555766 C98.1566104,11.3977454 96.9098702,10.1140985 93.9401936,10.3714443 C91.9629777,10.5432649 90.5921799,11.4909755 89.9017724,12.7468845 C89.814701,12.1312579 89.5650447,11.4593851 89.1404749,10.7081512 C87.1678823,7.21780267 80.0403502,1.91678775 69.7481938,7.73018275 C66.1320307,9.77353908 63.4204864,12.5272931 62.1691229,15.805755 C60.7659622,13.3817735 58.1592119,11.7121079 54.0506712,11.3361057 C50.4684121,11.0078742 47.8840075,12.1651598 45.7372718,14.7555685 L45.6347895,14.7463226 L46.4600421,5.73767917 C46.7890644,2.15564162 44.7371057,0.314925824 41.6664878,0.0344651509 C38.5935583,-0.247536515 36.2441696,1.18943919 35.9143768,4.77224724 L33.3746637,32.5139685 C33.047953,36.0967766 35.0976001,37.9359514 38.1697591,38.2171825 C41.2396064,38.4984137 43.5913068,37.062979 43.9203291,33.4794004 L44.777174,24.1124763 C45.0684396,20.9388018 46.5347849,19.0094789 49.1461585,19.2475623 C51.7559911,19.4871866 52.8902319,21.1915246 52.6228531,24.1086238 L51.6989709,34.1913391 C51.3714896,37.7749176 53.4234484,39.6133219 56.4940662,39.8953236 C59.5662252,40.1765548 61.9163845,38.7411201 62.2446362,35.1575415 L63.0452314,26.4154899 C63.2070457,26.7421803 63.3765654,27.0696413 63.563037,27.4001842 C68.3666084,35.9026115 76.2885714,36.4458114 83.6280031,32.299 C88.9794312,29.2763428 91.6948283,26.4817525 92.7073232,24.1764274 L96.6717721,33.5055973 C98.4232187,37.6362283 99.6083153,38.2033136 103.243742,37.8874101 C107.187386,37.5445392 109.408094,36.9905523 110.075385,32.1865076 L111.605686,20.7030299 L111.709709,20.6953249 L115.196421,31.7427017 C116.680488,36.3602863 118.965151,36.522861 122.908025,36.1792197 C126.544222,35.8633162 127.612967,35.1005248 128.625462,30.7302694 L132.006609,16.1971672 C132.537514,13.9843017 132.738626,12.7283926 132.622274,11.3977454 L132.622274,11.3977454 Z M73.2302822,12.84859 C75.511863,11.5595496 78.1833391,11.584976 80.0041346,14.8071918 L71.3663362,19.6859747 C69.6541874,16.3435615 71.1713886,14.011269 73.2302822,12.84859 L73.2302822,12.84859 Z M88.1503259,18.8831175 C85.3316759,20.474963 84.9795373,24.4522651 81.6230476,26.3476862 C78.6240903,28.0412372 75.8370326,27.0781167 73.945347,24.2503951 L87.0130029,16.86904 C88.1187336,16.244938 88.913935,15.613131 89.3947545,14.9219957 C89.3970661,14.9982749 89.3970661,15.074554 89.4032305,15.1508331 C89.4949252,16.2110361 89.7815676,17.1972715 90.348688,18.6072798 C89.613589,18.4423936 88.8361101,18.4955578 88.1503259,18.8831175 Z M155.15221,10.1310494 C152.452224,9.76737511 150.908053,11.2182197 149.305322,15.4112609 L144.534113,27.7353501 L144.431631,27.7207107 L142.601589,12.434063 C142.304159,9.64486619 141.041237,8.23023488 138.647157,7.90816741 C135.692891,7.50982079 133.24102,9.15097803 132.898128,11.698239 C132.787941,12.5141946 132.932032,14.1399419 133.724151,17.8768492 L137.182353,34.5750463 C137.37653,35.4318382 137.479012,36.223138 137.417369,36.6823538 C137.313345,37.4466862 136.684582,37.8797051 134.54401,37.590769 C132.150701,37.2687015 130.418518,37.8134424 130.08179,40.3090801 C129.718864,43.0096699 131.530413,44.9651896 135.707532,45.5276519 C140.088845,46.1178522 144.877776,45.2055845 148.068599,38.8428256 L156.590816,21.7855773 C158.286783,18.4354591 159.37325,16.1447734 159.488832,15.2787355 C159.894138,12.2737998 157.698087,10.4731498 155.15221,10.1310494 Z M33.5865633,27.12974 C33.2421301,25.3121391 31.445992,23.5592599 28.9702341,24.0284921 C26.0914817,24.5755446 25.2253902,28.5590107 21.7409902,29.2200966 C18.1055636,29.9096908 16.3525759,26.7367868 15.7006957,23.3034551 C15.1643971,20.474963 15.4533511,16.7580885 19.6951959,15.9544608 C23.382249,15.2548502 25.2415717,18.7197723 27.9192121,18.2127857 C29.9904344,17.8198325 31.3789547,16.0392154 30.9281865,13.6660867 C30.2385496,10.0293439 24.7792452,7.45588604 17.5076214,8.83584502 C9.22504382,10.4068871 3.52532977,15.9351984 5.33687874,25.4793368 C7.15690369,35.0735574 14.4863183,38.1301164 22.7681254,36.5575334 C32.0100303,34.8054247 33.9903284,29.2509164 33.5865633,27.12974 Z"></path>
                    </g>
                </g>
            </g>
        </g>
    </g>
</svg>